<svg xmlns="http://www.w3.org/2000/svg" viewBox="0 0 109 124" width="32" height="36"><path fill="#95BF47" d="M74.7 14.8c0-.4-.4-.6-.7-.7-.3-.1-6.2-.5-6.2-.5s-4.1-4.1-4.6-4.6c-.5-.5-1.4-.3-1.7-.2 0 0-.9.3-2.4.7-.2-.8-.6-1.7-1.1-2.7-1.6-3.1-4-4.7-6.9-4.8-.2 0-.4 0-.6.1-.1-.1-.2-.2-.2-.3C49.1.7 47.5.1 45.6.1c-3.7.1-7.5 2.8-10.5 7.6-2.1 3.4-3.7 7.6-4.2 10.9-4.3 1.3-7.3 2.3-7.4 2.3-2.2.7-2.2.7-2.5 2.8-.2 1.5-5.8 45.4-5.8 45.4l47.3 8.2 20.5-5.1c0-.1-8.3-56-8.3-56.4zm-15-3.7c-1.1.3-2.4.7-3.7 1.2 0-1.9-.3-4.5-1.1-6.7 2.7.4 4 3.5 4.8 5.5zm-6.2 1.9c-2.5.8-5.3 1.6-8.1 2.5.8-3 2.3-6 4.1-8 .7-.7 1.7-1.6 2.8-2.1 1.2 2.4 1.4 5.7 1.2 7.6zm-5.1-9.7c.9 0 1.7.2 2.4.6-1.1.6-2.1 1.4-3.1 2.4-2.4 2.6-4.3 6.7-5 10.6-2.4.7-4.7 1.5-6.8 2.1 1.4-6.4 6.6-15.5 12.5-15.7z"/><path fill="#5E8E3E" d="M74 14.1c-.3-.1-6.2-.5-6.2-.5s-4.1-4.1-4.6-4.6c-.2-.2-.4-.3-.7-.3v75l20.5-5.1S74.4 22.7 74.4 22.3c0-.4-.4-.6-.4-.6.1.1-.4-7.6 0-7.6z"/><path fill="#FFF" d="M51.4 25.7l-2.4 8.9s-2.7-1.2-5.8-1c-4.6.3-4.6 3.2-4.6 3.9.2 3.9 10.6 4.8 11.2 14.1.5 7.3-3.9 12.3-10.1 12.7-7.5.5-11.6-3.9-11.6-3.9l1.6-6.8s4.2 3.1 7.5 2.9c2.2-.1 2.9-1.9 2.9-3.1-.3-5.1-8.7-4.8-9.3-13.3-.4-7.2 4.3-14.4 14.6-15.1 4-.3 6 .7 6 .7z"/></svg>
